<?xml version="1.0" encoding="UTF-8" standalone="no"?>

<svg
   fill=""
   height="800px"
   width="800px"
   version="1.1"
   id="Icons"
   viewBox="0 0 32 32"
>
   <g
      id="g2"
      style="fill:#fff;fill-opacity:1;stroke-opacity:1;stroke-width:0.08;stroke-dasharray:none;stroke-linejoin:round"
   >
      <path
         d="m 13,11 c 0.6,0 1,-0.4 1,-1 0,-0.6 -0.4,-1 -1,-1 -5,0 -9,4 -9,9 0,2.8 2.2,5 5,5 2.8,0 5,-2.2 5,-5 C 14,15.2 11.8,13 9,13 8.4449566,13 8.587661,12.47297 9.4809069,11.947307 10.506158,11.343961 11.688586,11 13,11 Z"
         id="path1"
         style="fill:;fill-opacity:1;stroke-opacity:1;stroke-width:0.08;stroke-dasharray:none;stroke-linejoin:round"
      />
      <path
         d="M 23,13 C 22.444957,13 22.696062,12.349102 23.779551,11.781287 24.733656,11.281277 25.814089,11 27,11 c 0.6,0 1,-0.4 1,-1 0,-0.6 -0.4,-1 -1,-1 -5,0 -9,4 -9,9 0,2.8 2.2,5 5,5 2.8,0 5,-2.2 5,-5 0,-2.8 -2.2,-5 -5,-5 z"
         id="path2"
         style="fill:;fill-opacity:1;stroke-opacity:1;stroke-width:0.08;stroke-dasharray:none;stroke-linejoin:round"
      />
   </g>
</svg>
